<svg width="22" height="18" viewBox="0 0 22 18" fill="none" xmlns="http://www.w3.org/2000/svg">
<path d="M20.0005 13V4.2C20.0005 3.0799 20.0005 2.51984 19.7825 2.09202C19.5908 1.71569 19.2848 1.40973 18.9085 1.21799C18.4806 1 17.9206 1 16.8005 1H5.20049C4.08038 1 3.52033 1 3.09251 1.21799C2.71618 1.40973 2.41022 1.71569 2.21848 2.09202C2.00049 2.51984 2.00049 3.0799 2.00049 4.2V13M3.66715 17H18.3338C18.9538 17 19.2638 17 19.5181 16.9319C20.2083 16.7469 20.7474 16.2078 20.9323 15.5176C21.0005 15.2633 21.0005 14.9533 21.0005 14.3333C21.0005 14.0233 21.0005 13.8683 20.9664 13.7412C20.8739 13.3961 20.6044 13.1265 20.2593 13.0341C20.1321 13 19.9771 13 19.6672 13H2.33382C2.02383 13 1.86884 13 1.74167 13.0341C1.39658 13.1265 1.12703 13.3961 1.03456 13.7412C1.00049 13.8683 1.00049 14.0233 1.00049 14.3333C1.00049 14.9533 1.00049 15.2633 1.06864 15.5176C1.25357 16.2078 1.79267 16.7469 2.48285 16.9319C2.73718 17 3.04717 17 3.66715 17Z" stroke="url(#paint0_linear_4204_221)" stroke-width="2" stroke-linecap="round" stroke-linejoin="round"/>
<defs>
<linearGradient id="paint0_linear_4204_221" x1="1.00049" y1="9" x2="21.0005" y2="9" gradientUnits="userSpaceOnUse">
<stop stop-color="#045A86"/>
<stop offset="1" stop-color="#019977"/>
</linearGradient>
</defs>
</svg>
