<svg width="24" height="24" viewBox="0 0 24 24" fill="none" xmlns="http://www.w3.org/2000/svg">
<path d="M3 20C5.33579 17.5226 8.50702 16 12 16M16.5 7.5C16.5 9.98528 14.4853 12 12 12C9.51472 12 7.5 9.98528 7.5 7.5C7.5 5.01472 9.51472 3 12 3C14.4853 3 16.5 5.01472 16.5 7.5Z" stroke="url(#paint0_linear_373_2352)" stroke-width="2" stroke-linecap="round" stroke-linejoin="round"/>
<path d="M23 15L18.342 19.755C18.1723 19.9283 18.0874 20.0149 17.9896 20.0474C17.9035 20.0759 17.8108 20.0759 17.7247 20.0474C17.6269 20.0149 17.542 19.9283 17.3723 19.755L15.7706 18.12C15.6009 17.9467 15.516 17.8601 15.4182 17.8276C15.3321 17.7991 15.2394 17.7991 15.1533 17.8276C15.0554 17.8601 14.9706 17.9467 14.8008 18.12L11 22M23 15H19.5714M23 15V18.5" stroke="url(#paint1_linear_373_2352)" stroke-width="2" stroke-linecap="round" stroke-linejoin="round"/>
<defs>
<linearGradient id="paint0_linear_373_2352" x1="3" y1="11.5" x2="16.5" y2="11.5" gradientUnits="userSpaceOnUse">
<stop stop-color="#045A86"/>
<stop offset="1" stop-color="#019977"/>
</linearGradient>
<linearGradient id="paint1_linear_373_2352" x1="11" y1="18.5" x2="23" y2="18.5" gradientUnits="userSpaceOnUse">
<stop stop-color="#045A86"/>
<stop offset="1" stop-color="#019977"/>
</linearGradient>
</defs>
</svg>
