<svg width="22" height="22" viewBox="0 0 22 22" fill="none" xmlns="http://www.w3.org/2000/svg">
<path d="M9 16.6586V19C9 20.1046 9.89543 21 11 21C12.1046 21 13 20.1046 13 19V16.6586M11 1V2M2 11H1M4.5 4.5L3.8999 3.8999M17.5 4.5L18.1002 3.8999M21 11H20M17 11C17 14.3137 14.3137 17 11 17C7.68629 17 5 14.3137 5 11C5 7.68629 7.68629 5 11 5C14.3137 5 17 7.68629 17 11Z" stroke="url(#paint0_linear_4204_92)" stroke-width="2" stroke-linecap="round" stroke-linejoin="round"/>
<defs>
<linearGradient id="paint0_linear_4204_92" x1="1" y1="11" x2="21" y2="11" gradientUnits="userSpaceOnUse">
<stop stop-color="#045A86"/>
<stop offset="1" stop-color="#019977"/>
</linearGradient>
</defs>
</svg>
